<?xml version="1.0" encoding="UTF-8"?>
<svg id="Layer_1" data-name="Layer 1" xmlns="http://www.w3.org/2000/svg" viewBox="0 0 500 500">
  <defs>
    <style>
      .cls-1 {
        fill: #4d9342;
        stroke: #4d9342;
        stroke-miterlimit: 10;
        stroke-width: 6px;
      }

      .cls-2 {
        fill: #252526;
      }
    </style>
  </defs>
  <path class="cls-2" d="M292.83,500H62.17c-34.34,0-62.17-27.84-62.17-62.17v-252.66C0,94.68,123.35,0,233.17,0h204.66c34.34,0,62.17,27.84,62.17,62.17v257.66c0,98.52-117.7,180.17-207.17,180.17Z"/>
  <path class="cls-1" d="M279.03,82.2l29.27,150.74,50.27-1.7c20.54-42.26,41.22-86.06,69.03-124.1,2.4-3.28,19.2-24.94,21.39-24.94h25.4c-41.49,42.48-68.15,97.16-94.32,149.88-.16,1.13.04.72.81.82,4.62.61,10.78-.23,15.66-.02,18.33.77,40.39.71,56.02,10.96l10.09,8.04c-30.21-2.84-60.51-3.09-90.92-2.72-23.68,54.36-42.52,110.76-54.2,169.06h-24.56c.47-4.24,1.58-8.41,2.15-12.64,2.85-20.87,2.05-42.59,1.2-63.56-1.22-30.19-4.97-60.05-10.15-89.77l-.82-.85-48.77,1.59,29.03,165.22h-27.91l-27.64-163.55-64.2,7.81c-15.24,40.12-31.71,79.85-53.19,117.05-5.95,10.31-12.74,21.45-19.74,31.06-4.27,5.86-4.16,7.28-11.86,7.65-7.69.37-15.5-.31-23.2-.02,11.93-15.89,23.67-31.77,34.28-48.6,20.94-33.22,38.17-68.67,53.35-104.88-19.81,2.39-39.77,7.04-59.52,9.4-13.77,1.65-20.22.97-32.39-5.96-3.39-1.93-8.09-4.07-8-8.46l108.16-15.76c10.36-26.4,21.23-52.7,30.84-79.4,7.21-20.03,15.53-42.74,20.37-63.36,1.1-4.67,1.49-11.4,2.88-15.54.28-.83,2.2-3.44,2.7-3.44h36c-1.27,2.75-2.76,5.35-3.74,8.26-6.15,18.04-3.17,43.44-1.27,62.35,2.76,27.55,7.28,54.99,11.77,82.27l49.62-.5c-6.9-48.85-21.64-96.06-32.66-144-.59-2.57-1.5-5.65-1.92-8.14-.27-1.65.65-.24.81-.24h29.86ZM221.54,82.76h-22.88v.56h22.88v-.56ZM275.68,82.76h-26.23v.56h26.23v-.56ZM472.15,82.76h-19.54v.56h19.54v-.56ZM207.58,237.37l-15.06-102.14c-5.49,23.68-16.16,45.47-24.98,67.96-5.03,12.82-9.44,25.91-14.65,38.65l54.7-4.46ZM351.03,249.66l-40.19,1.11,11.17,75.9,29.02-77.02Z"/>
</svg>